<?xml version="1.0" encoding="UTF-8"?>
<!DOCTYPE svg PUBLIC "-//W3C//DTD SVG 1.1//EN" "http://www.w3.org/Graphics/SVG/1.1/DTD/svg11.dtd">
<svg version="1.2" width="291.31mm" height="236.63mm" viewBox="0 0 29131 23663" preserveAspectRatio="xMidYMid" fill-rule="evenodd" stroke-width="28.222" stroke-linejoin="round" xmlns="http://www.w3.org/2000/svg" xmlns:ooo="http://xml.openoffice.org/svg/export" xmlns:xlink="http://www.w3.org/1999/xlink" xmlns:presentation="http://sun.com/xmlns/staroffice/presentation" xmlns:smil="http://www.w3.org/2001/SMIL20/" xmlns:anim="urn:oasis:names:tc:opendocument:xmlns:animation:1.0" xml:space="preserve">
 <defs class="ClipPathGroup">
  <clipPath id="presentation_clip_path" clipPathUnits="userSpaceOnUse">
   <rect x="0" y="0" width="29131" height="23663"/>
  </clipPath>
  <clipPath id="presentation_clip_path_shrink" clipPathUnits="userSpaceOnUse">
   <rect x="29" y="23" width="29073" height="23616"/>
  </clipPath>
 </defs>
 <defs class="TextShapeIndex">
  <g ooo:slide="id1" ooo:id-list="id3"/>
 </defs>
 <defs class="EmbeddedBulletChars">
  <g id="bullet-char-template-57356" transform="scale(0.00048828125,-0.00048828125)">
   <path d="M 580,1141 L 1163,571 580,0 -4,571 580,1141 Z"/>
  </g>
  <g id="bullet-char-template-57354" transform="scale(0.00048828125,-0.00048828125)">
   <path d="M 8,1128 L 1137,1128 1137,0 8,0 8,1128 Z"/>
  </g>
  <g id="bullet-char-template-10146" transform="scale(0.00048828125,-0.00048828125)">
   <path d="M 174,0 L 602,739 174,1481 1456,739 174,0 Z M 1358,739 L 309,1346 659,739 1358,739 Z"/>
  </g>
  <g id="bullet-char-template-10132" transform="scale(0.00048828125,-0.00048828125)">
   <path d="M 2015,739 L 1276,0 717,0 1260,543 174,543 174,936 1260,936 717,1481 1274,1481 2015,739 Z"/>
  </g>
  <g id="bullet-char-template-10007" transform="scale(0.00048828125,-0.00048828125)">
   <path d="M 0,-2 C -7,14 -16,27 -25,37 L 356,567 C 262,823 215,952 215,954 215,979 228,992 255,992 264,992 276,990 289,987 310,991 331,999 354,1012 L 381,999 492,748 772,1049 836,1024 860,1049 C 881,1039 901,1025 922,1006 886,937 835,863 770,784 769,783 710,716 594,584 L 774,223 C 774,196 753,168 711,139 L 727,119 C 717,90 699,76 672,76 641,76 570,178 457,381 L 164,-76 C 142,-110 111,-127 72,-127 30,-127 9,-110 8,-76 1,-67 -2,-52 -2,-32 -2,-23 -1,-13 0,-2 Z"/>
  </g>
  <g id="bullet-char-template-10004" transform="scale(0.00048828125,-0.00048828125)">
   <path d="M 285,-33 C 182,-33 111,30 74,156 52,228 41,333 41,471 41,549 55,616 82,672 116,743 169,778 240,778 293,778 328,747 346,684 L 369,508 C 377,444 397,411 428,410 L 1163,1116 C 1174,1127 1196,1133 1229,1133 1271,1133 1292,1118 1292,1087 L 1292,965 C 1292,929 1282,901 1262,881 L 442,47 C 390,-6 338,-33 285,-33 Z"/>
  </g>
  <g id="bullet-char-template-9679" transform="scale(0.00048828125,-0.00048828125)">
   <path d="M 813,0 C 632,0 489,54 383,161 276,268 223,411 223,592 223,773 276,916 383,1023 489,1130 632,1184 813,1184 992,1184 1136,1130 1245,1023 1353,916 1407,772 1407,592 1407,412 1353,268 1245,161 1136,54 992,0 813,0 Z"/>
  </g>
  <g id="bullet-char-template-8226" transform="scale(0.00048828125,-0.00048828125)">
   <path d="M 346,457 C 273,457 209,483 155,535 101,586 74,649 74,723 74,796 101,859 155,911 209,963 273,989 346,989 419,989 480,963 531,910 582,859 608,796 608,723 608,648 583,586 532,535 482,483 420,457 346,457 Z"/>
  </g>
  <g id="bullet-char-template-8211" transform="scale(0.00048828125,-0.00048828125)">
   <path d="M -4,459 L 1135,459 1135,606 -4,606 -4,459 Z"/>
  </g>
  <g id="bullet-char-template-61548" transform="scale(0.00048828125,-0.00048828125)">
   <path d="M 173,740 C 173,903 231,1043 346,1159 462,1274 601,1332 765,1332 928,1332 1067,1274 1183,1159 1299,1043 1357,903 1357,740 1357,577 1299,437 1183,322 1067,206 928,148 765,148 601,148 462,206 346,322 231,437 173,577 173,740 Z"/>
  </g>
 </defs>
 <g>
  <g id="id2" class="Master_Slide">
   <g id="bg-id2" class="Background"/>
   <g id="bo-id2" class="BackgroundObjects"/>
  </g>
 </g>
 <g class="SlideGroup">
  <g>
   <g id="container-id1">
    <g id="id1" class="Slide" clip-path="url(#presentation_clip_path)">
     <g class="Page">
      <g class="com.sun.star.drawing.ClosedBezierShape">
       <g id="id3">
        <rect class="BoundingBox" stroke="none" fill="none" x="762" y="1143" width="27715" height="21974"/>
        <path fill="rgb(0,0,0)" stroke="none" d="M 13551,23093 C 13482,23024 13536,22783 13684,22496 13771,22328 13868,22072 13900,21927 13986,21541 13954,20972 13814,20370 13681,19801 13678,19738 13783,19696 13863,19665 15060,19621 17813,19551 18628,19531 19486,19503 19720,19489 L 20145,19465 19090,18495 C 18510,17961 17716,17233 17325,16877 16934,16521 16542,16163 16455,16082 16368,16002 15939,15611 15503,15214 15066,14817 14686,14470 14659,14444 14631,14418 14020,13862 13301,13209 12582,12556 11858,11894 11693,11738 11528,11582 11012,11107 10546,10681 9443,9672 9396,9628 9102,9355 8965,9227 8663,8949 8431,8738 8199,8526 7794,8154 7531,7911 7269,7668 6776,7216 6436,6906 6097,6597 5811,6335 5801,6325 5792,6314 5522,6066 5202,5774 4442,5079 2869,3638 2644,3430 1765,2618 1574,2451 1498,2427 1392,2394 877,1902 806,1768 709,1580 779,1258 935,1174 981,1149 1104,1138 1234,1146 1454,1160 1455,1161 1749,1435 1912,1586 2068,1748 2097,1796 2126,1843 2406,2107 2719,2384 3032,2660 3873,3408 4589,4048 6155,5449 6751,5981 8500,7540 10275,9121 10344,9183 10756,9553 10951,9728 11476,10195 11922,10591 12368,10988 12852,11424 12998,11561 13143,11698 13509,12026 13809,12291 14546,12939 15824,14068 16711,14853 17111,15207 17455,15496 17475,15496 17495,15496 17537,15534 17567,15581 17598,15628 17685,15707 17761,15757 17836,15807 18070,16013 18279,16214 18489,16415 18747,16656 18854,16749 19336,17169 19943,17703 20512,18208 20657,18337 20882,18535 21012,18647 21258,18861 21323,18977 21323,19205 21323,19310 21343,19353 21412,19398 21492,19450 21586,19452 22444,19416 23527,19370 24806,19322 26297,19272 26870,19253 27501,19229 27700,19219 L 28063,19201 28132,19315 C 28246,19502 28411,20042 28453,20365 28501,20740 28469,21245 28379,21536 28300,21789 28101,22141 27933,22325 27838,22428 27797,22449 27702,22439 27594,22429 27584,22418 27574,22293 27565,22186 27592,22108 27703,21923 27930,21543 27969,21394 27968,20911 27967,20588 27951,20442 27899,20294 L 27832,20100 27607,20089 27381,20079 27404,20192 C 27503,20686 27457,21332 27295,21723 27177,22008 26853,22438 26732,22468 26491,22529 26440,22288 26633,21997 26704,21890 26804,21697 26855,21569 26936,21364 26947,21285 26946,20947 26944,20544 26895,20285 26800,20179 26761,20136 26692,20118 26565,20118 L 26386,20118 26398,20676 C 26417,21549 26326,21818 25801,22437 25719,22533 25506,22548 25472,22461 25439,22374 25447,22205 25485,22182 25556,22138 25797,21681 25857,21476 25971,21094 25925,20385 25776,20215 25738,20171 25669,20153 25539,20153 L 25355,20153 25372,20658 C 25400,21470 25299,21829 24900,22339 24729,22558 24692,22587 24588,22587 24386,22587 24368,22375 24548,22107 24615,22008 24714,21826 24769,21702 24863,21489 24868,21447 24869,20982 24869,20558 24859,20468 24798,20347 L 24728,20206 24509,20206 C 24292,20206 24290,20207 24313,20294 24326,20342 24336,20596 24336,20858 24336,21553 24232,21880 23851,22386 23676,22619 23667,22625 23529,22615 23393,22605 23387,22599 23376,22476 23368,22376 23396,22301 23507,22129 23795,21684 23901,21213 23828,20702 23767,20267 23685,20183 23380,20244 L 23277,20265 23292,20752 C 23316,21511 23194,21926 22801,22421 22618,22652 22606,22660 22470,22650 22336,22640 22328,22634 22318,22513 22310,22411 22342,22332 22485,22107 22770,21660 22862,21173 22766,20622 22715,20332 22675,20294 22418,20294 L 22213,20294 22230,20797 C 22258,21595 22111,22079 21704,22529 21535,22715 21506,22733 21394,22723 21280,22711 21270,22701 21260,22581 21251,22478 21277,22408 21386,22246 21686,21797 21784,21385 21720,20840 21698,20650 21655,20462 21623,20413 21572,20334 21547,20327 21349,20336 L 21131,20347 21148,20523 C 21174,20804 21153,21418 21109,21632 21054,21902 20873,22279 20672,22545 20508,22761 20499,22767 20358,22756 20222,22746 20211,22738 20201,22632 20193,22549 20229,22453 20334,22276 20595,21838 20633,21687 20634,21099 20635,20627 20629,20573 20561,20482 20497,20395 20460,20381 20278,20372 L 20068,20362 20069,20972 C 20070,21565 20067,21590 19962,21886 19860,22170 19625,22574 19455,22755 19365,22850 19156,22865 19122,22778 19083,22675 19100,22546 19167,22451 19255,22326 19434,21965 19484,21811 19602,21446 19592,20674 19468,20479 19424,20411 19386,20400 19196,20400 L 18975,20400 18976,20973 C 18977,21775 18864,22146 18462,22651 18296,22859 18276,22872 18155,22862 18033,22852 18024,22843 18014,22723 18006,22622 18041,22530 18178,22290 18442,21830 18514,21446 18450,20834 18414,20485 18384,20453 18098,20452 L 17866,20451 17866,20970 C 17866,21780 17755,22163 17373,22667 17206,22888 17184,22904 17057,22904 16915,22904 16878,22865 16879,22716 16879,22674 16911,22592 16951,22534 17302,22020 17433,21433 17335,20824 17285,20515 17238,20470 16968,20470 L 16751,20470 16750,21044 C 16748,21852 16647,22187 16241,22739 16072,22968 16058,22979 15933,22968 15808,22958 15802,22952 15792,22814 15783,22699 15810,22623 15925,22426 16004,22292 16101,22078 16140,21952 16278,21511 16262,20658 16114,20550 16081,20525 15953,20506 15831,20506 L 15608,20506 15608,21061 C 15607,21884 15531,22165 15162,22721 L 14966,23014 14820,23003 C 14682,22993 14673,22986 14662,22875 14654,22790 14700,22661 14831,22399 15078,21908 15137,21610 15091,21078 15048,20571 15022,20538 14691,20565 L 14462,20584 14460,21171 C 14457,21977 14378,22265 14011,22816 13934,22933 13846,23048 13816,23072 13757,23119 13590,23132 13551,23093 Z"/>
       </g>
      </g>
     </g>
    </g>
   </g>
  </g>
 </g>
</svg>