<?xml version="1.0" encoding="UTF-8" standalone="no"?>
<!DOCTYPE svg PUBLIC "-//W3C//DTD SVG 20010904//EN"
              "http://www.w3.org/TR/2001/REC-SVG-20010904/DTD/svg10.dtd">

<svg xmlns="http://www.w3.org/2000/svg"
     width="1in" height="1.00333in"
     viewBox="0 0 300 301">
  <path id="Tracciato importato #1"
        fill="none" stroke="black" stroke-width="1"
        d="M 128.38,94.18
           C 128.38,94.18 142.40,108.24 142.40,108.24
             142.40,108.24 93.19,157.30 93.19,157.30
             93.19,157.30 72.12,164.28 72.12,164.28
             72.12,164.28 79.17,143.24 79.17,143.24
             79.17,143.24 128.38,94.18 128.38,94.18 Z
           M 269.75,201.12
           C 269.75,201.12 256.12,105.38 256.12,105.38
             252.62,80.75 231.50,62.50 206.62,62.50
             206.62,62.50 93.38,62.50 93.38,62.50
             68.50,62.50 47.38,80.75 43.88,105.38
             43.88,105.38 30.25,201.12 30.25,201.12
             27.50,220.38 42.38,237.50 61.75,237.50
             61.75,237.50 61.75,237.50 61.75,237.50
             70.25,237.50 78.25,234.12 84.25,228.12
             84.25,228.12 112.50,200.00 112.50,200.00
             112.50,200.00 187.50,200.00 187.50,200.00
             187.50,200.00 215.62,228.12 215.62,228.12
             221.62,234.12 229.75,237.50 238.12,237.50
             238.12,237.50 238.12,237.50 238.12,237.50
             257.62,237.50 272.50,220.38 269.75,201.12 Z
           M 187.50,125.00
           C 180.62,125.00 175.00,119.38 175.00,112.50
             175.00,105.62 180.62,100.00 187.50,100.00
             194.38,100.00 200.00,105.62 200.00,112.50
             200.00,119.38 194.38,125.00 187.50,125.00 Z
           M 212.50,162.50
           C 205.62,162.50 200.00,156.88 200.00,150.00
             200.00,143.12 205.62,137.50 212.50,137.50
             219.38,137.50 225.00,143.12 225.00,150.00
             225.00,156.88 219.38,162.50 212.50,162.50 Z" />
</svg>
