<?xml version="1.0" encoding="UTF-8" standalone="no"?>
<!DOCTYPE svg PUBLIC "-//W3C//DTD SVG 20010904//EN"
              "http://www.w3.org/TR/2001/REC-SVG-20010904/DTD/svg10.dtd">

<svg xmlns="http://www.w3.org/2000/svg"
     fill="#000000" width="24px" height="24px" viewBox="-2 -2.455555555 24 24">
  <path d="M 6.47,11.00
           C 4.41,11.00 2.74,9.33 2.74,7.27
             2.74,5.21 4.41,3.54 6.47,3.54
             8.53,3.54 10.20,5.21 10.20,7.27
             10.20,9.33 8.53,11.00 6.47,11.00
             6.47,11.00 6.47,11.00 6.47,11.00 Z
           M 7.72,5.20
           C 7.72,5.20 8.54,6.02 8.54,6.02
             8.54,6.02 5.64,8.93 5.64,8.93
             5.64,8.93 4.40,9.34 4.40,9.34
             4.40,9.34 4.81,8.10 4.81,8.10
             4.81,8.10 7.72,5.20 7.72,5.20 Z
           M 19.75,13.42
           C 19.75,13.42 18.65,5.63 18.65,5.63
             18.36,3.63 16.64,2.14 14.62,2.14
             14.62,2.14 5.40,2.14 5.40,2.14
             3.38,2.14 1.66,3.63 1.37,5.63
             1.37,5.63 0.27,13.42 0.27,13.42
             0.04,14.99 1.25,16.38 2.83,16.38
             2.83,16.38 2.83,16.38 2.83,16.38
             3.52,16.38 4.17,16.11 4.66,15.62
             4.66,15.62 6.96,13.33 6.96,13.33
             6.96,13.33 13.06,13.33 13.06,13.33
             13.06,13.33 15.35,15.62 15.35,15.62
             15.84,16.11 16.50,16.38 17.18,16.38
             17.18,16.38 17.18,16.38 17.18,16.38
             18.77,16.38 19.98,14.99 19.75,13.42 Z
           M 13.06,7.23
           C 12.50,7.23 12.04,6.77 12.04,6.21
             12.04,5.65 12.50,5.19 13.06,5.19
             13.62,5.19 14.08,5.65 14.08,6.21
             14.08,6.77 13.62,7.23 13.06,7.23 Z
           M 15.10,10.28
           C 14.54,10.28 14.08,9.82 14.08,9.26
             14.08,8.70 14.54,8.25 15.10,8.25
             15.66,8.25 16.11,8.70 16.11,9.26
             16.11,9.82 15.66,10.28 15.10,10.28 Z" />
</svg>
